solid icosaedre
facet normal -1.2360680e+00 -3.2360680e+00  0.0000000e+00
    outer loop
        vertex -1.6180340e+00 -1.0000000e+00  0.0000000e+00
        vertex  0.0000000e+00 -1.6180340e+00 -1.0000000e+00
        vertex  0.0000000e+00 -1.6180340e+00  1.0000000e+00
    endloop
endfacet
facet normal -2.0000000e+00 -2.0000000e+00 -2.0000000e+00
    outer loop
        vertex -1.6180340e+00 -1.0000000e+00  0.0000000e+00
        vertex -1.0000000e+00  0.0000000e+00 -1.6180340e+00
        vertex  0.0000000e+00 -1.6180340e+00 -1.0000000e+00
    endloop
endfacet
facet normal -3.2360680e+00  0.0000000e+00 -1.2360680e+00
    outer loop
        vertex -1.6180340e+00 -1.0000000e+00  0.0000000e+00
        vertex -1.6180340e+00  1.0000000e+00  0.0000000e+00
        vertex -1.0000000e+00  0.0000000e+00 -1.6180340e+00
    endloop
endfacet
facet normal -2.0000000e+00 -2.0000000e+00  2.0000000e+00
    outer loop
        vertex -1.6180340e+00 -1.0000000e+00  0.0000000e+00
        vertex  0.0000000e+00 -1.6180340e+00  1.0000000e+00
        vertex -1.0000000e+00  0.0000000e+00  1.6180340e+00
    endloop
endfacet
facet normal -3.2360680e+00  0.0000000e+00  1.2360680e+00
    outer loop
        vertex -1.6180340e+00 -1.0000000e+00  0.0000000e+00
        vertex -1.0000000e+00  0.0000000e+00  1.6180340e+00
        vertex -1.6180340e+00  1.0000000e+00  0.0000000e+00
    endloop
endfacet
facet normal  0.0000000e+00 -1.2360680e+00 -3.2360680e+00
    outer loop
        vertex  0.0000000e+00 -1.6180340e+00 -1.0000000e+00
        vertex -1.0000000e+00  0.0000000e+00 -1.6180340e+00
        vertex  1.0000000e+00  0.0000000e+00 -1.6180340e+00
    endloop
endfacet
facet normal  2.0000000e+00 -2.0000000e+00 -2.0000000e+00
    outer loop
        vertex  0.0000000e+00 -1.6180340e+00 -1.0000000e+00
        vertex  1.0000000e+00  0.0000000e+00 -1.6180340e+00
        vertex  1.6180340e+00 -1.0000000e+00  0.0000000e+00
    endloop
endfacet
facet normal  1.2360680e+00 -3.2360680e+00  0.0000000e+00
    outer loop
        vertex  0.0000000e+00 -1.6180340e+00 -1.0000000e+00
        vertex  1.6180340e+00 -1.0000000e+00  0.0000000e+00
        vertex  0.0000000e+00 -1.6180340e+00  1.0000000e+00
    endloop
endfacet
facet normal -2.0000000e+00  2.0000000e+00 -2.0000000e+00
    outer loop
        vertex -1.0000000e+00  0.0000000e+00 -1.6180340e+00
        vertex -1.6180340e+00  1.0000000e+00  0.0000000e+00
        vertex  0.0000000e+00  1.6180340e+00 -1.0000000e+00
    endloop
endfacet
facet normal  0.0000000e+00  1.2360680e+00 -3.2360680e+00
    outer loop
        vertex -1.0000000e+00  0.0000000e+00 -1.6180340e+00
        vertex  0.0000000e+00  1.6180340e+00 -1.0000000e+00
        vertex  1.0000000e+00  0.0000000e+00 -1.6180340e+00
    endloop
endfacet
facet normal -2.0000000e+00  2.0000000e+00  2.0000000e+00
    outer loop
        vertex -1.6180340e+00  1.0000000e+00  0.0000000e+00
        vertex -1.0000000e+00  0.0000000e+00  1.6180340e+00
        vertex  0.0000000e+00  1.6180340e+00  1.0000000e+00
    endloop
endfacet
facet normal -1.2360680e+00  3.2360680e+00  0.0000000e+00
    outer loop
        vertex -1.6180340e+00  1.0000000e+00  0.0000000e+00
        vertex  0.0000000e+00  1.6180340e+00  1.0000000e+00
        vertex  0.0000000e+00  1.6180340e+00 -1.0000000e+00
    endloop
endfacet
facet normal  2.0000000e+00 -2.0000000e+00  2.0000000e+00
    outer loop
        vertex  0.0000000e+00 -1.6180340e+00  1.0000000e+00
        vertex  1.6180340e+00 -1.0000000e+00  0.0000000e+00
        vertex  1.0000000e+00  0.0000000e+00  1.6180340e+00
    endloop
endfacet
facet normal  0.0000000e+00 -1.2360680e+00  3.2360680e+00
    outer loop
        vertex  0.0000000e+00 -1.6180340e+00  1.0000000e+00
        vertex  1.0000000e+00  0.0000000e+00  1.6180340e+00
        vertex -1.0000000e+00  0.0000000e+00  1.6180340e+00
    endloop
endfacet
facet normal  2.0000000e+00  2.0000000e+00 -2.0000000e+00
    outer loop
        vertex  1.0000000e+00  0.0000000e+00 -1.6180340e+00
        vertex  0.0000000e+00  1.6180340e+00 -1.0000000e+00
        vertex  1.6180340e+00  1.0000000e+00  0.0000000e+00
    endloop
endfacet
facet normal  3.2360680e+00  0.0000000e+00 -1.2360680e+00
    outer loop
        vertex  1.0000000e+00  0.0000000e+00 -1.6180340e+00
        vertex  1.6180340e+00  1.0000000e+00  0.0000000e+00
        vertex  1.6180340e+00 -1.0000000e+00  0.0000000e+00
    endloop
endfacet
facet normal  3.2360680e+00 -0.0000000e+00  1.2360680e+00
    outer loop
        vertex  1.6180340e+00 -1.0000000e+00  0.0000000e+00
        vertex  1.6180340e+00  1.0000000e+00  0.0000000e+00
        vertex  1.0000000e+00  0.0000000e+00  1.6180340e+00
    endloop
endfacet
facet normal  1.2360680e+00  3.2360680e+00 -0.0000000e+00
    outer loop
        vertex  0.0000000e+00  1.6180340e+00 -1.0000000e+00
        vertex  0.0000000e+00  1.6180340e+00  1.0000000e+00
        vertex  1.6180340e+00  1.0000000e+00  0.0000000e+00
    endloop
endfacet
facet normal -0.0000000e+00  1.2360680e+00  3.2360680e+00
    outer loop
        vertex -1.0000000e+00  0.0000000e+00  1.6180340e+00
        vertex  1.0000000e+00  0.0000000e+00  1.6180340e+00
        vertex  0.0000000e+00  1.6180340e+00  1.0000000e+00
    endloop
endfacet
facet normal  2.0000000e+00  2.0000000e+00  2.0000000e+00
    outer loop
        vertex  1.6180340e+00  1.0000000e+00  0.0000000e+00
        vertex  0.0000000e+00  1.6180340e+00  1.0000000e+00
        vertex  1.0000000e+00  0.0000000e+00  1.6180340e+00
    endloop
endfacet
endsolid icosaedre
